<?xml version="1.0" encoding="UTF-8" standalone="no"?>
<svg
   xmlns:dc="http://purl.org/dc/elements/1.1/"
   xmlns:cc="http://creativecommons.org/ns#"
   xmlns:rdf="http://www.w3.org/1999/02/22-rdf-syntax-ns#"
   xmlns:svg="http://www.w3.org/2000/svg"
   xmlns="http://www.w3.org/2000/svg"
   viewBox="0 0 326.66666 326.66666"
   height="326.66666"
   width="326.66666"
   xml:space="preserve"
   id="svg2"
   version="1.1"><metadata
     id="metadata8"><rdf:RDF><cc:Work
         rdf:about=""><dc:format>image/svg+xml</dc:format><dc:type
           rdf:resource="http://purl.org/dc/dcmitype/StillImage" /></cc:Work></rdf:RDF></metadata><defs
     id="defs6" /><g
     transform="matrix(1.3333333,0,0,-1.3333333,0,326.66667)"
     id="g10"><g
       transform="scale(0.1)"
       id="g12"><path
         id="path14"
         style="fill:#fec806;fill-opacity:1;fill-rule:nonzero;stroke:none"
         d="m 1145.09,2447.07 c 105.81,6.34 212.42,-0.07 316.39,-20.7 249.38,-48.59 481.87,-178.31 654.59,-364.47 155.61,-165.7 263.19,-375.88 306.12,-599.11 39.84,-206.33 26.26,-422.99 -41.02,-622.157 C 2336.15,705.914 2266.92,579.426 2178.25,468.453 2081.29,347.102 1961.18,244.281 1826.02,167.676 1690.82,90.7734 1540.66,40.1992 1386.44,19.9688 1158.57,-10.6367 922.012,24.1563 713.344,121.152 490.988,223.262 301.27,394.457 176.172,604.664 109.078,716.742 60.3711,839.738 32.418,967.324 0.789063,1112.46 -4.27344,1263.29 17.6367,1410.16 c 30.461,207.51 116.2773,406.41 245.9263,571.22 120.371,153.87 278.195,278.24 456.089,359.05 133.774,61.13 278.762,96.96 425.438,106.64" /><path
         id="path16"
         style="fill:#000000;fill-opacity:1;fill-rule:nonzero;stroke:none"
         d="m 537.258,1969.28 c -41.621,-42.42 -84.731,-83.44 -125.551,-126.58 43.746,-43.13 81.793,-91.88 115.828,-143.02 78.574,-118.99 132.235,-256.04 145.328,-398.55 13.922,-141.45 -14.445,-285.44 -73.957,-414.048 -46.605,-99.949 -109.16,-193.031 -187.242,-271.133 64.988,-67.351 132.379,-132.371 197.973,-199.144 23.148,19.898 44.953,41.566 69.301,60.148 52.382,41.781 108.746,78.539 168.449,108.981 118.945,61.211 252.153,97.441 386.413,95.109 143.6,-1.156 284.56,-46.004 408.44,-117.234 71.33,-40.641 136.95,-90.836 196.73,-147.039 44.73,45.109 89.82,89.824 134.67,134.851 21,21.602 43.37,41.949 63.37,64.469 -53.32,52.656 -98.54,113.254 -137.45,177.223 -64.15,106.214 -108.21,225.537 -122.21,349.147 -15.53,133.65 6.12,270.49 57.49,394.52 46.87,113.33 115.54,217.75 201.35,305.37 l -0.31,2.06 c -24.94,25.99 -50.95,51.01 -76.24,76.68 -40.75,40.12 -80.37,81.49 -121.76,120.92 -66.84,-65.12 -143.76,-119.51 -225.97,-163.44 -120.74,-63.8 -256.36,-102.89 -393.58,-100.96 -139.24,0.38 -276.057,42.61 -397.365,109.6 -76.094,42.45 -147.613,93.7 -209.973,154.7 -25.594,-23.12 -48.937,-48.64 -73.734,-72.63" /></g></g></svg>